HIERARCHY
ROOT Hips
{
	OFFSET -0.179506 -22.333345 2.821913
	CHANNELS 6 Xposition Yposition Zposition Zrotation Yrotation Xrotation 
	JOINT LeftUpLeg
	{
		OFFSET 6.951974 -9.140623 -0.681533
		CHANNELS 3 Zrotation Yrotation Xrotation
		JOINT LeftLeg
		{
			OFFSET 3.427654 -37.519855 -0.449580
			CHANNELS 3 Zrotation Yrotation Xrotation
			JOINT LeftFoot
			{
				OFFSET -1.359570 -39.796059 -4.369333
				CHANNELS 3 Zrotation Yrotation Xrotation
				JOINT LeftToe
				{
					OFFSET 2.635814 -5.579078 11.928840
					CHANNELS 3 Zrotation Yrotation Xrotation
					End Site
					{
						OFFSET 0.000000 0.000000 0.000000
					}
				}
			}
		}
	}
	JOINT RightUpLeg
	{
		OFFSET -6.767048 -9.052170 -0.431982
		CHANNELS 3 Zrotation Yrotation Xrotation
		JOINT RightLeg
		{
			OFFSET -3.829005 -38.256897 -0.885003
			CHANNELS 3 Zrotation Yrotation Xrotation
			JOINT RightFoot
			{
				OFFSET 1.577377 -39.841461 -4.231180
				CHANNELS 3 Zrotation Yrotation Xrotation
				JOINT RightToe
				{
					OFFSET -2.537174 -4.814398 12.334795
					CHANNELS 3 Zrotation Yrotation Xrotation
					End Site
					{
						OFFSET 0.000000 0.000000 0.000000
					}
				}
			}
		}
	}
	JOINT Spine
	{
		OFFSET -0.253288 10.896323 -2.669631
		CHANNELS 3 Zrotation Yrotation Xrotation
		JOINT Spine1
		{
			OFFSET 0.548704 13.518043 0.109247
			CHANNELS 3 Zrotation Yrotation Xrotation
			JOINT Spine2
			{
				OFFSET 0.145701 5.292222 2.542457
				CHANNELS 3 Zrotation Yrotation Xrotation
				JOINT Neck
				{
					OFFSET -0.277840 21.387037 -4.285703
					CHANNELS 3 Zrotation Yrotation Xrotation
					JOINT Head
					{
						OFFSET 0.515184 6.496960 5.134897
						CHANNELS 3 Zrotation Yrotation Xrotation
						End Site
						{
							OFFSET 0.000000 0.000000 0.000000
						}
					}
				}
				JOINT LeftShoulder
				{
					OFFSET 7.884473 12.174932 -3.408961
					CHANNELS 3 Zrotation Yrotation Xrotation
					JOINT LeftArm
					{
						OFFSET 9.097692 3.046888 -0.886815
						CHANNELS 3 Zrotation Yrotation Xrotation
						JOINT LeftForeArm
						{
							OFFSET 25.961220 -1.277207 -2.745643
							CHANNELS 3 Zrotation Yrotation Xrotation
							JOINT LeftHand
							{
								OFFSET 24.923361 0.898606 -0.117091
								CHANNELS 3 Zrotation Yrotation Xrotation
								End Site
								{
									OFFSET 0.000000 0.000000 0.000000
								}
							}
						}
					}
				}
				JOINT RightShoulder
				{
					OFFSET -8.175920 11.883285 -3.861528
					CHANNELS 3 Zrotation Yrotation Xrotation
					JOINT RightArm
					{
						OFFSET -9.601238 3.255117 -0.914307
						CHANNELS 3 Zrotation Yrotation Xrotation
						JOINT RightForeArm
						{
							OFFSET -25.374195 -1.332924 -2.140099
							CHANNELS 3 Zrotation Yrotation Xrotation
							JOINT RightHand
							{
								OFFSET -25.529810 0.777228 -0.555919
								CHANNELS 3 Zrotation Yrotation Xrotation
								End Site
								{
									OFFSET 0.000000 0.000000 0.000000
								}
							}
						}
					}
				}
			}
		}
	}
}
MOTION
Frames: 9
Frame Time: 0.033333
-10.990739 -5.331352 90.816353 -122.017052 2.177009 85.498031 16.808293 8.267158 -1.003348 -4.727540 0.986421 17.840361 -0.211622 11.421086 -22.339463 nan nan nan -13.066918 -13.421265 -11.875218 2.454764 -14.158338 19.548677 2.688288 -8.034803 -8.573697 nan nan nan -7.873274 1.822512 1.659666 7.617559 -6.928044 14.778087 1.932441 -0.614702 -9.757281 1.411778 -19.725468 17.530154 5.398131 -13.924072 21.945710 -21.656447 -13.393844 7.780216 -57.355974 -43.405233 28.796329 156.831719 -73.086962 -131.739702 -7.533798 -18.739665 -3.767320 20.283240 8.145988 -0.809438 26.026377 18.937689 -6.851200 -80.760138 54.988891 -62.906174 6.832434 7.231768 2.059015 
-10.953503 -5.393086 90.783722 -122.002867 2.114028 85.533636 16.774276 8.217449 -1.131790 -4.750096 1.311231 17.950290 -0.215791 11.346503 -22.322700 nan nan nan -13.109596 -13.369162 -11.930506 2.376119 -14.231588 19.496467 2.767344 -7.985795 -8.372478 nan nan nan -7.796408 1.704901 1.710419 7.489618 -6.832515 14.513412 1.693758 -0.545499 -9.512116 1.639468 -19.855481 17.049433 5.283904 -14.009370 22.387700 -21.413268 -12.520802 7.679494 -58.419689 -44.210787 29.842389 156.249149 -73.559355 -131.935700 -7.755313 -18.625916 -3.724078 20.199633 7.509662 -0.658224 26.306098 19.785875 -6.776015 -80.430161 54.896125 -62.604034 6.658599 6.975430 2.476860 
-10.941778 -5.427025 90.784271 -121.981826 2.092984 85.541927 16.764039 8.194545 -1.165183 -4.778382 1.379466 17.921156 -0.227764 11.308427 -22.323168 nan nan nan -13.117411 -13.349464 -11.939103 2.361232 -14.269080 19.422328 2.831403 -7.984519 -8.260454 nan nan nan -7.772433 1.605361 1.730923 7.418095 -6.851101 14.374104 1.585631 -0.509248 -9.378252 1.796678 -19.864654 16.727347 5.273205 -13.976369 22.653584 -21.239830 -12.164690 7.788548 -58.842303 -44.597884 30.193043 156.031793 -73.701809 -132.098239 -7.743028 -18.500555 -3.713862 20.143239 7.317392 -0.522368 26.458003 20.212453 -6.818390 -80.190923 54.849990 -62.442975 6.418429 6.831178 2.725954 
-10.947642 -5.415341 90.814873 -121.909516 2.133332 85.482566 16.937537 9.006133 -1.526975 -5.285423 2.878904 19.011862 -0.410682 11.242625 -22.344872 nan nan nan -13.059261 -13.370870 -11.801324 2.312022 -14.384941 19.277243 2.807053 -7.842152 -8.227492 nan nan nan -7.845736 1.569896 1.780229 7.462179 -6.955330 14.467628 1.589596 -0.436578 -9.505483 1.921733 -19.843865 16.756330 5.204021 -14.098631 22.606673 -21.181095 -12.045010 8.128623 -59.075373 -44.893748 30.265648 155.577090 -73.729995 -131.891706 -8.121213 -18.560439 -3.427262 20.192948 7.269968 -0.376062 26.412115 20.380037 -6.981529 -80.094847 54.784930 -62.449207 6.642718 6.815805 3.118185 
-10.968921 -5.410079 90.830872 -121.925528 2.166520 85.415763 17.020842 9.081086 -1.365919 -5.326487 2.828583 18.897838 -0.552088 11.113363 -22.285865 nan nan nan -13.028009 -13.317218 -11.680332 2.297422 -14.387123 19.239784 2.749742 -7.743674 -8.309901 nan nan nan -7.845476 1.517709 1.811881 7.424135 -6.940115 14.540502 1.600195 -0.346576 -9.567240 0.915046 -19.886501 17.947935 5.475597 -14.603293 21.053321 -20.854125 -12.153614 8.044986 -59.471787 -44.749689 30.364370 155.269893 -73.665112 -131.255061 -8.240620 -18.761230 -3.357828 20.009590 7.371766 -0.365465 26.702980 20.280104 -7.026336 -80.267648 54.642358 -62.201256 6.998824 7.028795 3.082567 
-10.967080 -5.385682 90.836128 -121.955855 2.356991 85.297538 17.367139 9.292982 -1.203307 -5.511774 2.518282 18.854288 -0.616134 11.083055 -22.174163 nan nan nan -12.750475 -13.262616 -11.495534 2.332012 -14.051462 19.167525 2.354767 -7.950635 -8.494038 nan nan nan -7.883780 1.543276 1.857333 7.581034 -7.127675 14.878099 1.893896 -0.283313 -9.712968 1.285414 -19.587049 17.774933 5.269860 -14.896935 20.095067 -20.384513 -12.845938 7.683994 -59.671605 -43.873818 29.871768 155.173059 -73.439530 -129.959166 -7.623526 -19.329074 -4.296125 19.467424 7.991671 -0.417974 26.974799 19.910591 -6.989237 -80.677547 54.296312 -61.709374 7.245813 7.326186 2.279570 
-10.974265 -5.412843 90.853836 -121.944340 2.392628 85.343839 17.352442 9.292219 -1.271670 -5.460474 2.478460 18.835566 -0.616476 11.092038 -22.121969 nan nan nan -12.667204 -13.225389 -11.542400 2.322348 -14.013985 19.107954 2.344857 -8.033479 -8.506048 nan nan nan -7.797016 1.516214 1.935363 7.548130 -7.126230 14.615339 1.919961 -0.337117 -9.581636 1.478348 -19.639072 17.570596 5.070584 -14.895366 20.052310 -20.273031 -12.828963 7.598934 -59.952474 -43.725056 29.792502 155.395713 -73.318257 -129.724931 -8.024329 -19.365741 -4.209128 19.276604 7.968542 -0.507113 27.283026 19.986220 -6.857908 -80.799241 54.288935 -61.528330 7.536368 7.184395 2.103208 
-10.985720 -5.437232 90.860275 -121.915198 2.400997 85.347787 17.336690 9.328481 -1.332884 -5.421341 2.572284 18.877811 -0.651420 11.081378 -22.053710 nan nan nan -12.639554 -13.235832 -11.538435 2.315665 -14.052079 19.029873 2.355829 -8.028187 -8.525191 nan nan nan -7.819268 1.577003 1.908232 7.558755 -7.106433 14.473983 2.000938 -0.470325 -9.414344 1.452688 -19.655617 17.518665 5.065484 -14.881028 20.102182 -20.281763 -12.913298 7.665562 -59.822406 -43.824509 29.497950 155.314479 -73.286268 -129.755921 -8.595489 -19.458643 -3.737167 19.201988 7.871839 -0.549946 27.301489 20.102146 -7.093109 -80.637508 54.626261 -61.517290 7.770940 7.090772 2.434925 
-10.979013 -5.426077 90.875099 -121.899311 2.444164 85.264376 17.481443 9.490563 -1.354867 -5.329272 2.478992 19.042757 -0.501951 10.729578 -21.740330 nan nan nan -12.536666 -13.247975 -11.419922 2.274661 -13.937114 18.973230 2.204623 -8.004105 -8.605558 nan nan nan -7.911828 1.630290 2.034954 7.633319 -7.087273 14.473565 2.102076 -0.479962 -9.507300 1.480802 -19.549504 17.553110 5.100212 -15.060228 20.069110 -20.268033 -12.820866 7.740593 -60.007011 -44.010328 29.535887 155.053203 -73.379657 -129.820815 -9.102194 -19.639459 -3.290199 19.176048 7.658120 -0.404543 27.209589 20.302143 -7.430760 -80.509549 54.902441 -61.429891 8.084082 7.092686 2.811290 
